# xmcd
#
# Track frame offsets:
#	150
#	17386
#	36335
#	59012
#	82419
#	106504
#	127617
#	157965
#	175840
#	192474
#	214914
#	243154
#
# Disc length: 3538 seconds
#
# Revision: 0
# Processed by: cddbd v1.4PL0 Copyright (c) Steve Scherf et al.
# Submitted via: EasyCDDAExtractor 4.6.9.1
#
DISCID=980dd00c
DTITLE=Robben Ford - Blue Moon
DYEAR=2002
DGENRE=Blues
TTITLE0=Up The Line
TTITLE1=Hard To Please
TTITLE2=Don't Deny Your Love
TTITLE3=Make Me Your Only One
TTITLE4=Indianola
TTITLE5=My Everything
TTITLE6=The Way You Treated Me (You're Gonna Be Sorry)
TTITLE7=Sometime Love
TTITLE8=Good To Love
TTITLE9=Something For The Pain
TTITLE10=It Don't Make Sense (You Can't Make Peace)
TTITLE11=Remix: Don't Deny Your Love
EXTD=Concord Records 2112\n© 2002
EXTT0=
EXTT1=
EXTT2=
EXTT3=
EXTT4=
EXTT5=
EXTT6=
EXTT7=
EXTT8=
EXTT9=
EXTT10=
EXTT11=
PLAYORDER=
